<?xml version="1.0" standalone="no"?>
<svg xmlns:xlink="http://www.w3.org/1999/xlink" id="wave" style="transform:rotate(0deg); transition: 0.3s" viewBox="0 0 1440 490" version="1.1" xmlns="http://www.w3.org/2000/svg"><defs><linearGradient id="sw-gradient-0" x1="0" x2="0" y1="1" y2="0"><stop stop-color="rgba(243, 106, 62, 1)" offset="0%"/><stop stop-color="rgba(255, 179, 11, 1)" offset="100%"/></linearGradient></defs><path style="transform:translate(0, 0px); opacity:1" fill="url(#sw-gradient-0)" d="M0,0L48,24.5C96,49,192,98,288,163.3C384,229,480,310,576,343C672,376,768,359,864,302.2C960,245,1056,147,1152,130.7C1248,114,1344,180,1440,228.7C1536,278,1632,310,1728,326.7C1824,343,1920,343,2016,351.2C2112,359,2208,376,2304,359.3C2400,343,2496,294,2592,236.8C2688,180,2784,114,2880,89.8C2976,65,3072,82,3168,114.3C3264,147,3360,196,3456,245C3552,294,3648,343,3744,359.3C3840,376,3936,359,4032,359.3C4128,359,4224,376,4320,383.8C4416,392,4512,392,4608,326.7C4704,261,4800,131,4896,106.2C4992,82,5088,163,5184,171.5C5280,180,5376,114,5472,98C5568,82,5664,114,5760,130.7C5856,147,5952,147,6048,179.7C6144,212,6240,278,6336,294C6432,310,6528,278,6624,294C6720,310,6816,376,6864,408.3L6912,441L6912,490L6864,490C6816,490,6720,490,6624,490C6528,490,6432,490,6336,490C6240,490,6144,490,6048,490C5952,490,5856,490,5760,490C5664,490,5568,490,5472,490C5376,490,5280,490,5184,490C5088,490,4992,490,4896,490C4800,490,4704,490,4608,490C4512,490,4416,490,4320,490C4224,490,4128,490,4032,490C3936,490,3840,490,3744,490C3648,490,3552,490,3456,490C3360,490,3264,490,3168,490C3072,490,2976,490,2880,490C2784,490,2688,490,2592,490C2496,490,2400,490,2304,490C2208,490,2112,490,2016,490C1920,490,1824,490,1728,490C1632,490,1536,490,1440,490C1344,490,1248,490,1152,490C1056,490,960,490,864,490C768,490,672,490,576,490C480,490,384,490,288,490C192,490,96,490,48,490L0,490Z"/></svg>