<?xml version="1.0" standalone="no"?>
<svg xmlns:xlink="http://www.w3.org/1999/xlink" id="wave" style="transform:rotate(0deg); transition: 0.3s" viewBox="0 0 1440 430" version="1.1" xmlns="http://www.w3.org/2000/svg"><defs><linearGradient id="sw-gradient-0" x1="0" x2="0" y1="1" y2="0"><stop stop-color="rgba(56, 211, 159, 1)" offset="0%"/><stop stop-color="rgba(149, 255, 219, 1)" offset="100%"/></linearGradient></defs><path style="transform:translate(0, 0px); opacity:1" fill="url(#sw-gradient-0)" d="M0,344L120,336.8C240,330,480,315,720,258C960,201,1200,100,1440,93.2C1680,86,1920,172,2160,193.5C2400,215,2640,172,2880,186.3C3120,201,3360,272,3600,279.5C3840,287,4080,229,4320,186.3C4560,143,4800,115,5040,129C5280,143,5520,201,5760,193.5C6000,186,6240,115,6480,86C6720,57,6960,72,7200,78.8C7440,86,7680,86,7920,129C8160,172,8400,258,8640,308.2C8880,358,9120,373,9360,379.8C9600,387,9840,387,10080,387C10320,387,10560,387,10800,329.7C11040,272,11280,158,11520,136.2C11760,115,12000,186,12240,207.8C12480,229,12720,201,12960,172C13200,143,13440,115,13680,100.3C13920,86,14160,86,14400,71.7C14640,57,14880,29,15120,21.5C15360,14,15600,29,15840,71.7C16080,115,16320,186,16560,236.5C16800,287,17040,315,17160,329.7L17280,344L17280,430L17160,430C17040,430,16800,430,16560,430C16320,430,16080,430,15840,430C15600,430,15360,430,15120,430C14880,430,14640,430,14400,430C14160,430,13920,430,13680,430C13440,430,13200,430,12960,430C12720,430,12480,430,12240,430C12000,430,11760,430,11520,430C11280,430,11040,430,10800,430C10560,430,10320,430,10080,430C9840,430,9600,430,9360,430C9120,430,8880,430,8640,430C8400,430,8160,430,7920,430C7680,430,7440,430,7200,430C6960,430,6720,430,6480,430C6240,430,6000,430,5760,430C5520,430,5280,430,5040,430C4800,430,4560,430,4320,430C4080,430,3840,430,3600,430C3360,430,3120,430,2880,430C2640,430,2400,430,2160,430C1920,430,1680,430,1440,430C1200,430,960,430,720,430C480,430,240,430,120,430L0,430Z"/></svg>